<mxfile host="app.diagrams.net" modified="2024-03-20T14:17:28.648Z" agent="Mozilla/5.0 (Windows NT 10.0; Win64; x64) AppleWebKit/537.36 (KHTML, like Gecko) Chrome/122.0.0.0 Safari/537.36" etag="J0IBYfie-S7wegZxmZwR" version="24.0.7" type="device" pages="5">
  <diagram name="第 1 页" id="9Zczxt3hnveZh2mTEDan">
    <mxGraphModel dx="1802" dy="850" grid="1" gridSize="10" guides="1" tooltips="1" connect="1" arrows="1" fold="1" page="1" pageScale="1" pageWidth="827" pageHeight="1169" math="0" shadow="0">
      <root>
        <mxCell id="0" />
        <mxCell id="1" parent="0" />
        <mxCell id="YWd6qEVVTZZymY6bDHtS-2" value="" style="endArrow=classic;html=1;rounded=0;fontSize=12;startSize=8;endSize=8;curved=1;entryX=0.5;entryY=0;entryDx=0;entryDy=0;exitX=0.5;exitY=1;exitDx=0;exitDy=0;" parent="1" source="Z-MzxIkewiTypXj8i24F-13" edge="1">
          <mxGeometry width="50" height="50" relative="1" as="geometry">
            <mxPoint x="624.5" y="430" as="sourcePoint" />
            <mxPoint x="624.5" y="650" as="targetPoint" />
          </mxGeometry>
        </mxCell>
        <mxCell id="Z-MzxIkewiTypXj8i24F-10" value="" style="endArrow=classic;html=1;rounded=0;fontSize=12;startSize=8;endSize=8;curved=1;entryX=0.5;entryY=0;entryDx=0;entryDy=0;" parent="1" edge="1">
          <mxGeometry width="50" height="50" relative="1" as="geometry">
            <mxPoint x="354.5" y="430" as="sourcePoint" />
            <mxPoint x="354.5" y="650" as="targetPoint" />
          </mxGeometry>
        </mxCell>
        <mxCell id="Z-MzxIkewiTypXj8i24F-9" value="" style="endArrow=classic;html=1;rounded=0;fontSize=12;startSize=8;endSize=8;curved=1;entryX=0.5;entryY=0;entryDx=0;entryDy=0;" parent="1" edge="1">
          <mxGeometry width="50" height="50" relative="1" as="geometry">
            <mxPoint x="154.5" y="430" as="sourcePoint" />
            <mxPoint x="154.5" y="650" as="targetPoint" />
          </mxGeometry>
        </mxCell>
        <mxCell id="LfgQhv0N-kP6tdm9Hqhm-1" value="" style="shape=flexArrow;endArrow=classic;html=1;rounded=0;endWidth=17.619047619047617;endSize=6.776744186046512;width=38.6046511627907;" parent="1" edge="1">
          <mxGeometry width="50" height="50" relative="1" as="geometry">
            <mxPoint x="60" y="410" as="sourcePoint" />
            <mxPoint x="510" y="410" as="targetPoint" />
            <Array as="points">
              <mxPoint x="300" y="410" />
            </Array>
          </mxGeometry>
        </mxCell>
        <mxCell id="Z-MzxIkewiTypXj8i24F-1" value="城市雨洪模型集成框架" style="edgeLabel;html=1;align=center;verticalAlign=middle;resizable=0;points=[];fontSize=16;" parent="LfgQhv0N-kP6tdm9Hqhm-1" vertex="1" connectable="0">
          <mxGeometry x="-0.2175" y="-3" relative="1" as="geometry">
            <mxPoint x="42" y="-3" as="offset" />
          </mxGeometry>
        </mxCell>
        <mxCell id="LfgQhv0N-kP6tdm9Hqhm-2" value="&lt;font style=&quot;font-size: 16px;&quot;&gt;A模型/方法声明&lt;/font&gt;" style="shape=hexagon;perimeter=hexagonPerimeter2;whiteSpace=wrap;html=1;fixedSize=1;" parent="1" vertex="1">
          <mxGeometry x="90" y="460" width="130" height="60" as="geometry" />
        </mxCell>
        <mxCell id="Z-MzxIkewiTypXj8i24F-3" value="&lt;font style=&quot;font-size: 16px;&quot;&gt;A模型/方法&lt;/font&gt;" style="rounded=0;whiteSpace=wrap;html=1;" parent="1" vertex="1">
          <mxGeometry x="95" y="555" width="120" height="60" as="geometry" />
        </mxCell>
        <mxCell id="Z-MzxIkewiTypXj8i24F-5" value="&lt;font style=&quot;font-size: 16px;&quot;&gt;A模型/方法&lt;br&gt;调用执行逻辑&lt;/font&gt;" style="rounded=0;whiteSpace=wrap;html=1;" parent="1" vertex="1">
          <mxGeometry x="95" y="650" width="120" height="60" as="geometry" />
        </mxCell>
        <mxCell id="Z-MzxIkewiTypXj8i24F-6" value="&lt;font style=&quot;font-size: 16px;&quot;&gt;B模型/方法声明&lt;/font&gt;" style="shape=hexagon;perimeter=hexagonPerimeter2;whiteSpace=wrap;html=1;fixedSize=1;" parent="1" vertex="1">
          <mxGeometry x="290" y="460" width="130" height="60" as="geometry" />
        </mxCell>
        <mxCell id="Z-MzxIkewiTypXj8i24F-7" value="&lt;font style=&quot;font-size: 16px;&quot;&gt;B模型/方法&lt;/font&gt;" style="rounded=0;whiteSpace=wrap;html=1;" parent="1" vertex="1">
          <mxGeometry x="295" y="555" width="120" height="60" as="geometry" />
        </mxCell>
        <mxCell id="Z-MzxIkewiTypXj8i24F-8" value="&lt;font style=&quot;font-size: 16px;&quot;&gt;B模型/方法&lt;br&gt;调用执行逻辑&lt;/font&gt;" style="rounded=0;whiteSpace=wrap;html=1;" parent="1" vertex="1">
          <mxGeometry x="295" y="650" width="120" height="60" as="geometry" />
        </mxCell>
        <mxCell id="Z-MzxIkewiTypXj8i24F-11" value="&lt;b&gt;&lt;font style=&quot;font-size: 19px;&quot;&gt;……&lt;/font&gt;&lt;/b&gt;" style="text;html=1;align=center;verticalAlign=middle;resizable=0;points=[];autosize=1;strokeColor=none;fillColor=none;fontSize=16;" parent="1" vertex="1">
          <mxGeometry x="460" y="545" width="60" height="40" as="geometry" />
        </mxCell>
        <mxCell id="Z-MzxIkewiTypXj8i24F-13" value="&lt;font style=&quot;font-size: 16px;&quot;&gt;C模型/方法声明&lt;/font&gt;" style="shape=hexagon;perimeter=hexagonPerimeter2;whiteSpace=wrap;html=1;fixedSize=1;size=10;" parent="1" vertex="1">
          <mxGeometry x="560" y="460" width="130" height="60" as="geometry" />
        </mxCell>
        <mxCell id="Z-MzxIkewiTypXj8i24F-14" value="&lt;font style=&quot;font-size: 16px;&quot;&gt;C模型/方法&lt;/font&gt;" style="rounded=0;whiteSpace=wrap;html=1;" parent="1" vertex="1">
          <mxGeometry x="565" y="555" width="120" height="60" as="geometry" />
        </mxCell>
        <mxCell id="Z-MzxIkewiTypXj8i24F-15" value="&lt;font style=&quot;font-size: 16px;&quot;&gt;C模型/方法&lt;br&gt;调用执行逻辑&lt;/font&gt;" style="rounded=0;whiteSpace=wrap;html=1;" parent="1" vertex="1">
          <mxGeometry x="565" y="650" width="120" height="60" as="geometry" />
        </mxCell>
        <mxCell id="YWd6qEVVTZZymY6bDHtS-1" value="新增模型或&lt;br&gt;方法调用" style="text;html=1;align=center;verticalAlign=middle;whiteSpace=wrap;rounded=0;fontSize=16;" parent="1" vertex="1">
          <mxGeometry x="520" y="510" width="20" height="140" as="geometry" />
        </mxCell>
      </root>
    </mxGraphModel>
  </diagram>
  <diagram id="7IwIQmAgYn_tIm3h9Ag6" name="第 2 页">
    <mxGraphModel dx="1802" dy="850" grid="1" gridSize="10" guides="1" tooltips="1" connect="1" arrows="1" fold="1" page="1" pageScale="1" pageWidth="827" pageHeight="1169" math="0" shadow="0">
      <root>
        <mxCell id="0" />
        <mxCell id="1" parent="0" />
        <mxCell id="326xBdAeoGk-eZqkdv11-4" value="" style="shape=flexArrow;endArrow=classic;html=1;rounded=0;endWidth=17.619047619047617;endSize=6.776744186046512;width=38.6046511627907;" parent="1" edge="1">
          <mxGeometry width="50" height="50" relative="1" as="geometry">
            <mxPoint x="190" y="320" as="sourcePoint" />
            <mxPoint x="640" y="320" as="targetPoint" />
            <Array as="points">
              <mxPoint x="430" y="320" />
            </Array>
          </mxGeometry>
        </mxCell>
        <mxCell id="326xBdAeoGk-eZqkdv11-5" value="城市雨洪模型集成框架" style="edgeLabel;html=1;align=center;verticalAlign=middle;resizable=0;points=[];fontSize=16;" parent="326xBdAeoGk-eZqkdv11-4" vertex="1" connectable="0">
          <mxGeometry x="-0.2175" y="-3" relative="1" as="geometry">
            <mxPoint x="42" y="-3" as="offset" />
          </mxGeometry>
        </mxCell>
        <mxCell id="326xBdAeoGk-eZqkdv11-12" value="&lt;b&gt;&lt;font style=&quot;font-size: 19px;&quot;&gt;……&lt;/font&gt;&lt;/b&gt;" style="text;html=1;align=center;verticalAlign=middle;resizable=0;points=[];autosize=1;strokeColor=none;fillColor=none;fontSize=16;" parent="1" vertex="1">
          <mxGeometry x="225" y="550" width="60" height="40" as="geometry" />
        </mxCell>
        <mxCell id="326xBdAeoGk-eZqkdv11-17" value="&lt;font style=&quot;font-size: 16px;&quot;&gt;模型注册中心&lt;/font&gt;" style="shape=cylinder3;whiteSpace=wrap;html=1;boundedLbl=1;backgroundOutline=1;size=15;" parent="1" vertex="1">
          <mxGeometry x="380" y="410" width="60" height="80" as="geometry" />
        </mxCell>
        <mxCell id="326xBdAeoGk-eZqkdv11-3" value="" style="endArrow=classic;html=1;rounded=0;fontSize=12;startSize=8;endSize=8;curved=1;" parent="1" target="326xBdAeoGk-eZqkdv11-17" edge="1">
          <mxGeometry width="50" height="50" relative="1" as="geometry">
            <mxPoint x="410" y="340" as="sourcePoint" />
            <mxPoint x="410" y="390" as="targetPoint" />
          </mxGeometry>
        </mxCell>
        <mxCell id="326xBdAeoGk-eZqkdv11-19" value="&lt;span style=&quot;font-size: 16px;&quot;&gt;共享调用执行&lt;br&gt;接口&lt;/span&gt;" style="rounded=0;whiteSpace=wrap;html=1;" parent="1" vertex="1">
          <mxGeometry x="350" y="560" width="120" height="60" as="geometry" />
        </mxCell>
        <mxCell id="326xBdAeoGk-eZqkdv11-20" value="&lt;font style=&quot;font-size: 16px;&quot;&gt;MIL描述的&lt;br&gt;A模型/方法&lt;/font&gt;" style="rounded=0;whiteSpace=wrap;html=1;" parent="1" vertex="1">
          <mxGeometry x="200" y="380" width="110" height="50" as="geometry" />
        </mxCell>
        <mxCell id="326xBdAeoGk-eZqkdv11-21" value="&lt;font style=&quot;font-size: 16px;&quot;&gt;MIL描述的&lt;br&gt;B模型/方法&lt;/font&gt;" style="rounded=0;whiteSpace=wrap;html=1;" parent="1" vertex="1">
          <mxGeometry x="200" y="460" width="110" height="50" as="geometry" />
        </mxCell>
        <mxCell id="326xBdAeoGk-eZqkdv11-22" value="&lt;font style=&quot;font-size: 16px;&quot;&gt;新增模型/方法调用&lt;/font&gt;" style="text;html=1;align=center;verticalAlign=middle;resizable=0;points=[];autosize=1;strokeColor=none;fillColor=none;" parent="1" vertex="1">
          <mxGeometry x="520" y="390" width="160" height="30" as="geometry" />
        </mxCell>
        <mxCell id="326xBdAeoGk-eZqkdv11-23" value="&lt;font style=&quot;font-size: 16px;&quot;&gt;MIL描述的&lt;br&gt;C模型/方法&lt;/font&gt;" style="rounded=0;whiteSpace=wrap;html=1;" parent="1" vertex="1">
          <mxGeometry x="545" y="420" width="110" height="50" as="geometry" />
        </mxCell>
        <mxCell id="326xBdAeoGk-eZqkdv11-24" value="" style="endArrow=classic;html=1;rounded=0;exitX=1;exitY=0.5;exitDx=0;exitDy=0;entryX=0;entryY=0.5;entryDx=0;entryDy=0;entryPerimeter=0;" parent="1" source="326xBdAeoGk-eZqkdv11-20" target="326xBdAeoGk-eZqkdv11-17" edge="1">
          <mxGeometry width="50" height="50" relative="1" as="geometry">
            <mxPoint x="460" y="680" as="sourcePoint" />
            <mxPoint x="510" y="630" as="targetPoint" />
          </mxGeometry>
        </mxCell>
        <mxCell id="326xBdAeoGk-eZqkdv11-25" value="" style="endArrow=classic;html=1;rounded=0;exitX=1;exitY=0.5;exitDx=0;exitDy=0;entryX=0;entryY=0;entryDx=0;entryDy=52.5;entryPerimeter=0;" parent="1" source="326xBdAeoGk-eZqkdv11-21" target="326xBdAeoGk-eZqkdv11-17" edge="1">
          <mxGeometry width="50" height="50" relative="1" as="geometry">
            <mxPoint x="460" y="680" as="sourcePoint" />
            <mxPoint x="510" y="630" as="targetPoint" />
          </mxGeometry>
        </mxCell>
        <mxCell id="326xBdAeoGk-eZqkdv11-27" value="" style="endArrow=classic;html=1;rounded=0;exitX=0.5;exitY=1;exitDx=0;exitDy=0;exitPerimeter=0;entryX=0.5;entryY=0;entryDx=0;entryDy=0;" parent="1" source="326xBdAeoGk-eZqkdv11-17" target="326xBdAeoGk-eZqkdv11-19" edge="1">
          <mxGeometry width="50" height="50" relative="1" as="geometry">
            <mxPoint x="460" y="600" as="sourcePoint" />
            <mxPoint x="510" y="550" as="targetPoint" />
          </mxGeometry>
        </mxCell>
        <mxCell id="326xBdAeoGk-eZqkdv11-28" value="" style="endArrow=classic;html=1;rounded=0;exitX=0;exitY=0.5;exitDx=0;exitDy=0;dashed=1;" parent="1" source="326xBdAeoGk-eZqkdv11-23" edge="1">
          <mxGeometry width="50" height="50" relative="1" as="geometry">
            <mxPoint x="460" y="600" as="sourcePoint" />
            <mxPoint x="470" y="450" as="targetPoint" />
          </mxGeometry>
        </mxCell>
      </root>
    </mxGraphModel>
  </diagram>
  <diagram id="2O0_DfoPeTwvljaKZk6n" name="第 3 页">
    <mxGraphModel dx="1802" dy="850" grid="0" gridSize="10" guides="1" tooltips="1" connect="1" arrows="1" fold="1" page="1" pageScale="1" pageWidth="827" pageHeight="1169" math="0" shadow="0">
      <root>
        <mxCell id="0" />
        <mxCell id="1" parent="0" />
        <mxCell id="vA5rAC9NvQZdT_bPBTsz-1" value="" style="endArrow=classic;html=1;rounded=0;fontSize=12;startSize=8;endSize=8;curved=1;entryX=0.5;entryY=0;entryDx=0;entryDy=0;exitX=0.5;exitY=1;exitDx=0;exitDy=0;" parent="1" source="vA5rAC9NvQZdT_bPBTsz-13" target="vA5rAC9NvQZdT_bPBTsz-14" edge="1">
          <mxGeometry width="50" height="50" relative="1" as="geometry">
            <mxPoint x="663.5" y="360" as="sourcePoint" />
            <mxPoint x="663.5" y="580" as="targetPoint" />
          </mxGeometry>
        </mxCell>
        <mxCell id="vA5rAC9NvQZdT_bPBTsz-2" value="" style="endArrow=classic;html=1;rounded=0;fontSize=12;startSize=8;endSize=8;curved=1;entryX=0.5;entryY=0;entryDx=0;entryDy=0;" parent="1" target="vA5rAC9NvQZdT_bPBTsz-10" edge="1">
          <mxGeometry width="50" height="50" relative="1" as="geometry">
            <mxPoint x="393.5" y="360" as="sourcePoint" />
            <mxPoint x="393.5" y="580" as="targetPoint" />
          </mxGeometry>
        </mxCell>
        <mxCell id="vA5rAC9NvQZdT_bPBTsz-3" value="" style="endArrow=classic;html=1;rounded=0;fontSize=12;startSize=8;endSize=8;curved=1;entryX=0.5;entryY=0;entryDx=0;entryDy=0;" parent="1" target="vA5rAC9NvQZdT_bPBTsz-7" edge="1">
          <mxGeometry width="50" height="50" relative="1" as="geometry">
            <mxPoint x="193.5" y="360" as="sourcePoint" />
            <mxPoint x="193.5" y="580" as="targetPoint" />
          </mxGeometry>
        </mxCell>
        <mxCell id="vA5rAC9NvQZdT_bPBTsz-4" value="" style="shape=flexArrow;endArrow=classic;html=1;rounded=0;endWidth=17.619047619047617;endSize=6.776744186046512;width=38.6046511627907;" parent="1" edge="1">
          <mxGeometry width="50" height="50" relative="1" as="geometry">
            <mxPoint x="99" y="340" as="sourcePoint" />
            <mxPoint x="549" y="340" as="targetPoint" />
            <Array as="points">
              <mxPoint x="339" y="340" />
            </Array>
          </mxGeometry>
        </mxCell>
        <mxCell id="vA5rAC9NvQZdT_bPBTsz-5" value="基于工作流的城市雨洪模型集成框架" style="edgeLabel;html=1;align=center;verticalAlign=middle;resizable=0;points=[];fontSize=16;" parent="vA5rAC9NvQZdT_bPBTsz-4" vertex="1" connectable="0">
          <mxGeometry x="-0.2175" y="-3" relative="1" as="geometry">
            <mxPoint x="42" y="-3" as="offset" />
          </mxGeometry>
        </mxCell>
        <mxCell id="vA5rAC9NvQZdT_bPBTsz-6" value="&lt;font style=&quot;font-size: 16px;&quot;&gt;A模型/方法声明&lt;/font&gt;" style="shape=hexagon;perimeter=hexagonPerimeter2;whiteSpace=wrap;html=1;fixedSize=1;" parent="1" vertex="1">
          <mxGeometry x="129" y="390" width="130" height="60" as="geometry" />
        </mxCell>
        <mxCell id="vA5rAC9NvQZdT_bPBTsz-7" value="&lt;font style=&quot;font-size: 16px;&quot;&gt;A模型/方法&lt;/font&gt;" style="rounded=0;whiteSpace=wrap;html=1;" parent="1" vertex="1">
          <mxGeometry x="134" y="485" width="120" height="60" as="geometry" />
        </mxCell>
        <mxCell id="vA5rAC9NvQZdT_bPBTsz-9" value="&lt;font style=&quot;font-size: 16px;&quot;&gt;B模型/方法声明&lt;/font&gt;" style="shape=hexagon;perimeter=hexagonPerimeter2;whiteSpace=wrap;html=1;fixedSize=1;" parent="1" vertex="1">
          <mxGeometry x="329" y="390" width="130" height="60" as="geometry" />
        </mxCell>
        <mxCell id="vA5rAC9NvQZdT_bPBTsz-10" value="&lt;font style=&quot;font-size: 16px;&quot;&gt;B模型/方法&lt;/font&gt;" style="rounded=0;whiteSpace=wrap;html=1;" parent="1" vertex="1">
          <mxGeometry x="334" y="485" width="120" height="60" as="geometry" />
        </mxCell>
        <mxCell id="vA5rAC9NvQZdT_bPBTsz-12" value="&lt;b&gt;&lt;font style=&quot;font-size: 19px;&quot;&gt;……&lt;/font&gt;&lt;/b&gt;" style="text;html=1;align=center;verticalAlign=middle;resizable=0;points=[];autosize=1;strokeColor=none;fillColor=none;fontSize=16;" parent="1" vertex="1">
          <mxGeometry x="499" y="440" width="60" height="40" as="geometry" />
        </mxCell>
        <mxCell id="vA5rAC9NvQZdT_bPBTsz-13" value="&lt;font style=&quot;font-size: 16px;&quot;&gt;C模型/方法声明&lt;/font&gt;" style="shape=hexagon;perimeter=hexagonPerimeter2;whiteSpace=wrap;html=1;fixedSize=1;size=10;" parent="1" vertex="1">
          <mxGeometry x="599" y="390" width="130" height="60" as="geometry" />
        </mxCell>
        <mxCell id="vA5rAC9NvQZdT_bPBTsz-14" value="&lt;font style=&quot;font-size: 16px;&quot;&gt;C模型/方法&lt;/font&gt;" style="rounded=0;whiteSpace=wrap;html=1;" parent="1" vertex="1">
          <mxGeometry x="604" y="485" width="120" height="60" as="geometry" />
        </mxCell>
        <mxCell id="vA5rAC9NvQZdT_bPBTsz-16" value="新增模型或&lt;br&gt;方法" style="text;html=1;align=center;verticalAlign=middle;whiteSpace=wrap;rounded=0;fontSize=16;" parent="1" vertex="1">
          <mxGeometry x="570" y="440" width="9" height="70" as="geometry" />
        </mxCell>
      </root>
    </mxGraphModel>
  </diagram>
  <diagram id="v8UJj6KhxdbtGfHalcbF" name="第 4 页">
    <mxGraphModel dx="1802" dy="850" grid="0" gridSize="10" guides="1" tooltips="1" connect="1" arrows="1" fold="1" page="1" pageScale="1" pageWidth="827" pageHeight="1169" math="0" shadow="0">
      <root>
        <mxCell id="0" />
        <mxCell id="1" parent="0" />
        <mxCell id="IGBEACZeW4wch7QM8_-Z-1" value="" style="shape=flexArrow;endArrow=classic;html=1;rounded=0;endWidth=17.619047619047617;endSize=6.776744186046512;width=38.6046511627907;" parent="1" edge="1">
          <mxGeometry width="50" height="50" relative="1" as="geometry">
            <mxPoint x="190" y="320" as="sourcePoint" />
            <mxPoint x="640" y="320" as="targetPoint" />
            <Array as="points">
              <mxPoint x="430" y="320" />
            </Array>
          </mxGeometry>
        </mxCell>
        <mxCell id="IGBEACZeW4wch7QM8_-Z-3" value="&lt;b&gt;&lt;font style=&quot;font-size: 19px;&quot;&gt;……&lt;/font&gt;&lt;/b&gt;" style="text;html=1;align=center;verticalAlign=middle;resizable=0;points=[];autosize=1;strokeColor=none;fillColor=none;fontSize=16;" parent="1" vertex="1">
          <mxGeometry x="225" y="510" width="60" height="40" as="geometry" />
        </mxCell>
        <mxCell id="IGBEACZeW4wch7QM8_-Z-4" value="&lt;font style=&quot;font-size: 16px;&quot;&gt;模型注册中心&lt;/font&gt;" style="shape=cylinder3;whiteSpace=wrap;html=1;boundedLbl=1;backgroundOutline=1;size=15;" parent="1" vertex="1">
          <mxGeometry x="380" y="410" width="60" height="80" as="geometry" />
        </mxCell>
        <mxCell id="IGBEACZeW4wch7QM8_-Z-5" value="" style="endArrow=classic;html=1;rounded=0;fontSize=12;startSize=8;endSize=8;curved=1;" parent="1" target="IGBEACZeW4wch7QM8_-Z-4" edge="1">
          <mxGeometry width="50" height="50" relative="1" as="geometry">
            <mxPoint x="410" y="340" as="sourcePoint" />
            <mxPoint x="410" y="390" as="targetPoint" />
          </mxGeometry>
        </mxCell>
        <mxCell id="IGBEACZeW4wch7QM8_-Z-7" value="&lt;font style=&quot;font-size: 16px;&quot;&gt;MIL描述的&lt;br&gt;A模型/方法&lt;/font&gt;" style="rounded=0;whiteSpace=wrap;html=1;" parent="1" vertex="1">
          <mxGeometry x="200" y="360" width="110" height="50" as="geometry" />
        </mxCell>
        <mxCell id="IGBEACZeW4wch7QM8_-Z-8" value="&lt;font style=&quot;font-size: 16px;&quot;&gt;MIL描述的&lt;br&gt;B模型/方法&lt;/font&gt;" style="rounded=0;whiteSpace=wrap;html=1;" parent="1" vertex="1">
          <mxGeometry x="200" y="440" width="110" height="50" as="geometry" />
        </mxCell>
        <mxCell id="IGBEACZeW4wch7QM8_-Z-9" value="&lt;font style=&quot;font-size: 16px;&quot;&gt;新增模型/方法&lt;/font&gt;" style="text;html=1;align=center;verticalAlign=middle;resizable=0;points=[];autosize=1;strokeColor=none;fillColor=none;" parent="1" vertex="1">
          <mxGeometry x="520" y="380" width="120" height="30" as="geometry" />
        </mxCell>
        <mxCell id="IGBEACZeW4wch7QM8_-Z-10" value="&lt;font style=&quot;font-size: 16px;&quot;&gt;MIL描述的&lt;br&gt;C模型/方法&lt;/font&gt;" style="rounded=0;whiteSpace=wrap;html=1;" parent="1" vertex="1">
          <mxGeometry x="530" y="420" width="110" height="50" as="geometry" />
        </mxCell>
        <mxCell id="IGBEACZeW4wch7QM8_-Z-11" value="" style="endArrow=classic;html=1;rounded=0;exitX=1;exitY=0.5;exitDx=0;exitDy=0;entryX=0;entryY=0.5;entryDx=0;entryDy=0;entryPerimeter=0;" parent="1" source="IGBEACZeW4wch7QM8_-Z-7" target="IGBEACZeW4wch7QM8_-Z-4" edge="1">
          <mxGeometry width="50" height="50" relative="1" as="geometry">
            <mxPoint x="460" y="680" as="sourcePoint" />
            <mxPoint x="510" y="630" as="targetPoint" />
          </mxGeometry>
        </mxCell>
        <mxCell id="IGBEACZeW4wch7QM8_-Z-12" value="" style="endArrow=classic;html=1;rounded=0;exitX=1;exitY=0.5;exitDx=0;exitDy=0;entryX=0;entryY=0;entryDx=0;entryDy=52.5;entryPerimeter=0;" parent="1" source="IGBEACZeW4wch7QM8_-Z-8" target="IGBEACZeW4wch7QM8_-Z-4" edge="1">
          <mxGeometry width="50" height="50" relative="1" as="geometry">
            <mxPoint x="460" y="680" as="sourcePoint" />
            <mxPoint x="510" y="630" as="targetPoint" />
          </mxGeometry>
        </mxCell>
        <mxCell id="IGBEACZeW4wch7QM8_-Z-14" value="" style="endArrow=classic;html=1;rounded=0;exitX=0;exitY=0.5;exitDx=0;exitDy=0;dashed=1;" parent="1" source="IGBEACZeW4wch7QM8_-Z-10" edge="1">
          <mxGeometry width="50" height="50" relative="1" as="geometry">
            <mxPoint x="460" y="600" as="sourcePoint" />
            <mxPoint x="460" y="450" as="targetPoint" />
          </mxGeometry>
        </mxCell>
        <mxCell id="TWRFR18YCA3uMZYWGios-1" value="基于工作流的城市雨洪模型集成框架" style="edgeLabel;html=1;align=center;verticalAlign=middle;resizable=0;points=[];fontSize=16;" parent="1" vertex="1" connectable="0">
          <mxGeometry x="410" y="319" as="geometry" />
        </mxCell>
      </root>
    </mxGraphModel>
  </diagram>
  <diagram id="PpVo5-DljEhV5UhD3OR2" name="第 5 页">
    <mxGraphModel dx="1802" dy="850" grid="0" gridSize="10" guides="1" tooltips="1" connect="1" arrows="1" fold="1" page="1" pageScale="1" pageWidth="827" pageHeight="1169" math="0" shadow="0">
      <root>
        <mxCell id="0" />
        <mxCell id="1" parent="0" />
        <mxCell id="ofWKLr0q0zmOQTN4NXdY-1" value="" style="shape=flexArrow;endArrow=classic;html=1;rounded=0;endWidth=17.619047619047617;endSize=6.776744186046512;width=38.6046511627907;" parent="1" edge="1">
          <mxGeometry width="50" height="50" relative="1" as="geometry">
            <mxPoint x="90" y="582" as="sourcePoint" />
            <mxPoint x="540" y="582" as="targetPoint" />
            <Array as="points">
              <mxPoint x="330" y="582" />
            </Array>
          </mxGeometry>
        </mxCell>
        <mxCell id="ofWKLr0q0zmOQTN4NXdY-3" value="&lt;b&gt;&lt;font style=&quot;font-size: 19px;&quot;&gt;……&lt;/font&gt;&lt;/b&gt;" style="text;html=1;align=center;verticalAlign=middle;resizable=0;points=[];autosize=1;strokeColor=none;fillColor=none;fontSize=16;" parent="1" vertex="1">
          <mxGeometry x="125" y="812" width="60" height="40" as="geometry" />
        </mxCell>
        <mxCell id="ofWKLr0q0zmOQTN4NXdY-4" value="&lt;font style=&quot;font-size: 16px;&quot;&gt;模型注册中心&lt;/font&gt;" style="shape=cylinder3;whiteSpace=wrap;html=1;boundedLbl=1;backgroundOutline=1;size=15;" parent="1" vertex="1">
          <mxGeometry x="280" y="672" width="60" height="80" as="geometry" />
        </mxCell>
        <mxCell id="ofWKLr0q0zmOQTN4NXdY-5" value="" style="endArrow=classic;html=1;rounded=0;fontSize=12;startSize=8;endSize=8;curved=1;" parent="1" target="ofWKLr0q0zmOQTN4NXdY-4" edge="1">
          <mxGeometry width="50" height="50" relative="1" as="geometry">
            <mxPoint x="310" y="602" as="sourcePoint" />
            <mxPoint x="310" y="652" as="targetPoint" />
          </mxGeometry>
        </mxCell>
        <mxCell id="ofWKLr0q0zmOQTN4NXdY-6" value="&lt;span style=&quot;font-size: 16px;&quot;&gt;共享调用执行&lt;br&gt;接口&lt;/span&gt;" style="rounded=0;whiteSpace=wrap;html=1;" parent="1" vertex="1">
          <mxGeometry x="250" y="822" width="120" height="60" as="geometry" />
        </mxCell>
        <mxCell id="ofWKLr0q0zmOQTN4NXdY-7" value="&lt;font style=&quot;font-size: 16px;&quot;&gt;MIL描述的&lt;br&gt;A模型/方法&lt;/font&gt;" style="rounded=0;whiteSpace=wrap;html=1;" parent="1" vertex="1">
          <mxGeometry x="100" y="642" width="110" height="50" as="geometry" />
        </mxCell>
        <mxCell id="ofWKLr0q0zmOQTN4NXdY-8" value="&lt;font style=&quot;font-size: 16px;&quot;&gt;MIL描述的&lt;br&gt;B模型/方法&lt;/font&gt;" style="rounded=0;whiteSpace=wrap;html=1;" parent="1" vertex="1">
          <mxGeometry x="100" y="722" width="110" height="50" as="geometry" />
        </mxCell>
        <mxCell id="ofWKLr0q0zmOQTN4NXdY-9" value="&lt;font style=&quot;font-size: 16px;&quot;&gt;新增模型/方法调用&lt;/font&gt;" style="text;html=1;align=center;verticalAlign=middle;resizable=0;points=[];autosize=1;strokeColor=none;fillColor=none;" parent="1" vertex="1">
          <mxGeometry x="474" y="658" width="160" height="30" as="geometry" />
        </mxCell>
        <mxCell id="ofWKLr0q0zmOQTN4NXdY-10" value="&lt;font style=&quot;font-size: 16px;&quot;&gt;MIL描述的&lt;br&gt;C模型/方法&lt;/font&gt;" style="rounded=0;whiteSpace=wrap;html=1;" parent="1" vertex="1">
          <mxGeometry x="499" y="688" width="110" height="50" as="geometry" />
        </mxCell>
        <mxCell id="ofWKLr0q0zmOQTN4NXdY-11" value="" style="endArrow=classic;html=1;rounded=0;exitX=1;exitY=0.5;exitDx=0;exitDy=0;entryX=0;entryY=0.5;entryDx=0;entryDy=0;entryPerimeter=0;" parent="1" source="ofWKLr0q0zmOQTN4NXdY-7" target="ofWKLr0q0zmOQTN4NXdY-4" edge="1">
          <mxGeometry width="50" height="50" relative="1" as="geometry">
            <mxPoint x="360" y="942" as="sourcePoint" />
            <mxPoint x="410" y="892" as="targetPoint" />
          </mxGeometry>
        </mxCell>
        <mxCell id="ofWKLr0q0zmOQTN4NXdY-12" value="" style="endArrow=classic;html=1;rounded=0;exitX=1;exitY=0.5;exitDx=0;exitDy=0;entryX=0;entryY=0;entryDx=0;entryDy=52.5;entryPerimeter=0;" parent="1" source="ofWKLr0q0zmOQTN4NXdY-8" target="ofWKLr0q0zmOQTN4NXdY-4" edge="1">
          <mxGeometry width="50" height="50" relative="1" as="geometry">
            <mxPoint x="360" y="942" as="sourcePoint" />
            <mxPoint x="410" y="892" as="targetPoint" />
          </mxGeometry>
        </mxCell>
        <mxCell id="ofWKLr0q0zmOQTN4NXdY-13" value="" style="endArrow=classic;html=1;rounded=0;exitX=0.5;exitY=1;exitDx=0;exitDy=0;exitPerimeter=0;entryX=0.5;entryY=0;entryDx=0;entryDy=0;" parent="1" source="ofWKLr0q0zmOQTN4NXdY-4" target="ofWKLr0q0zmOQTN4NXdY-6" edge="1">
          <mxGeometry width="50" height="50" relative="1" as="geometry">
            <mxPoint x="360" y="862" as="sourcePoint" />
            <mxPoint x="410" y="812" as="targetPoint" />
          </mxGeometry>
        </mxCell>
        <mxCell id="ofWKLr0q0zmOQTN4NXdY-14" value="" style="endArrow=classic;html=1;rounded=0;exitX=0;exitY=0.5;exitDx=0;exitDy=0;dashed=1;" parent="1" source="ofWKLr0q0zmOQTN4NXdY-10" edge="1">
          <mxGeometry width="50" height="50" relative="1" as="geometry">
            <mxPoint x="360" y="862" as="sourcePoint" />
            <mxPoint x="370" y="712" as="targetPoint" />
          </mxGeometry>
        </mxCell>
        <mxCell id="uqAPfVNYOekRw5L2h9qv-1" value="" style="endArrow=classic;html=1;rounded=0;fontSize=12;startSize=8;endSize=8;curved=1;entryX=0.5;entryY=0;entryDx=0;entryDy=0;exitX=0.5;exitY=1;exitDx=0;exitDy=0;" parent="1" source="uqAPfVNYOekRw5L2h9qv-13" edge="1">
          <mxGeometry width="50" height="50" relative="1" as="geometry">
            <mxPoint x="613.5" y="192" as="sourcePoint" />
            <mxPoint x="613.5" y="412" as="targetPoint" />
          </mxGeometry>
        </mxCell>
        <mxCell id="uqAPfVNYOekRw5L2h9qv-2" value="" style="endArrow=classic;html=1;rounded=0;fontSize=12;startSize=8;endSize=8;curved=1;entryX=0.5;entryY=0;entryDx=0;entryDy=0;" parent="1" edge="1">
          <mxGeometry width="50" height="50" relative="1" as="geometry">
            <mxPoint x="374.5" y="192" as="sourcePoint" />
            <mxPoint x="374.5" y="412" as="targetPoint" />
          </mxGeometry>
        </mxCell>
        <mxCell id="uqAPfVNYOekRw5L2h9qv-3" value="" style="endArrow=classic;html=1;rounded=0;fontSize=12;startSize=8;endSize=8;curved=1;entryX=0.5;entryY=0;entryDx=0;entryDy=0;" parent="1" edge="1">
          <mxGeometry width="50" height="50" relative="1" as="geometry">
            <mxPoint x="174.5" y="192" as="sourcePoint" />
            <mxPoint x="174.5" y="412" as="targetPoint" />
          </mxGeometry>
        </mxCell>
        <mxCell id="uqAPfVNYOekRw5L2h9qv-4" value="" style="shape=flexArrow;endArrow=classic;html=1;rounded=0;endWidth=17.619047619047617;endSize=6.776744186046512;width=38.6046511627907;" parent="1" edge="1">
          <mxGeometry width="50" height="50" relative="1" as="geometry">
            <mxPoint x="80" y="172" as="sourcePoint" />
            <mxPoint x="530" y="172" as="targetPoint" />
            <Array as="points">
              <mxPoint x="320" y="172" />
            </Array>
          </mxGeometry>
        </mxCell>
        <mxCell id="uqAPfVNYOekRw5L2h9qv-6" value="&lt;font style=&quot;font-size: 16px;&quot;&gt;A模型/方法声明&lt;/font&gt;" style="shape=hexagon;perimeter=hexagonPerimeter2;whiteSpace=wrap;html=1;fixedSize=1;" parent="1" vertex="1">
          <mxGeometry x="110" y="222" width="130" height="60" as="geometry" />
        </mxCell>
        <mxCell id="uqAPfVNYOekRw5L2h9qv-7" value="&lt;font style=&quot;font-size: 16px;&quot;&gt;A模型/方法&lt;/font&gt;" style="rounded=0;whiteSpace=wrap;html=1;" parent="1" vertex="1">
          <mxGeometry x="115" y="317" width="120" height="60" as="geometry" />
        </mxCell>
        <mxCell id="uqAPfVNYOekRw5L2h9qv-8" value="&lt;font style=&quot;font-size: 16px;&quot;&gt;A模型/方法&lt;br&gt;调用执行逻辑&lt;/font&gt;" style="rounded=0;whiteSpace=wrap;html=1;" parent="1" vertex="1">
          <mxGeometry x="115" y="412" width="120" height="60" as="geometry" />
        </mxCell>
        <mxCell id="uqAPfVNYOekRw5L2h9qv-9" value="&lt;font style=&quot;font-size: 16px;&quot;&gt;B模型/方法声明&lt;/font&gt;" style="shape=hexagon;perimeter=hexagonPerimeter2;whiteSpace=wrap;html=1;fixedSize=1;" parent="1" vertex="1">
          <mxGeometry x="310" y="222" width="130" height="60" as="geometry" />
        </mxCell>
        <mxCell id="uqAPfVNYOekRw5L2h9qv-10" value="&lt;font style=&quot;font-size: 16px;&quot;&gt;B模型/方法&lt;/font&gt;" style="rounded=0;whiteSpace=wrap;html=1;" parent="1" vertex="1">
          <mxGeometry x="315" y="317" width="120" height="60" as="geometry" />
        </mxCell>
        <mxCell id="uqAPfVNYOekRw5L2h9qv-11" value="&lt;font style=&quot;font-size: 16px;&quot;&gt;B模型/方法&lt;br&gt;调用执行逻辑&lt;/font&gt;" style="rounded=0;whiteSpace=wrap;html=1;" parent="1" vertex="1">
          <mxGeometry x="315" y="412" width="120" height="60" as="geometry" />
        </mxCell>
        <mxCell id="uqAPfVNYOekRw5L2h9qv-12" value="&lt;b&gt;&lt;font style=&quot;font-size: 19px;&quot;&gt;……&lt;/font&gt;&lt;/b&gt;" style="text;html=1;align=center;verticalAlign=middle;resizable=0;points=[];autosize=1;strokeColor=none;fillColor=none;fontSize=16;" parent="1" vertex="1">
          <mxGeometry x="449" y="307" width="60" height="40" as="geometry" />
        </mxCell>
        <mxCell id="uqAPfVNYOekRw5L2h9qv-13" value="&lt;font style=&quot;font-size: 16px;&quot;&gt;C模型/方法声明&lt;/font&gt;" style="shape=hexagon;perimeter=hexagonPerimeter2;whiteSpace=wrap;html=1;fixedSize=1;size=10;" parent="1" vertex="1">
          <mxGeometry x="549" y="222" width="130" height="60" as="geometry" />
        </mxCell>
        <mxCell id="uqAPfVNYOekRw5L2h9qv-14" value="&lt;font style=&quot;font-size: 16px;&quot;&gt;C模型/方法&lt;/font&gt;" style="rounded=0;whiteSpace=wrap;html=1;" parent="1" vertex="1">
          <mxGeometry x="554" y="317" width="120" height="60" as="geometry" />
        </mxCell>
        <mxCell id="uqAPfVNYOekRw5L2h9qv-15" value="&lt;font style=&quot;font-size: 16px;&quot;&gt;C模型/方法&lt;br&gt;调用执行逻辑&lt;/font&gt;" style="rounded=0;whiteSpace=wrap;html=1;" parent="1" vertex="1">
          <mxGeometry x="554" y="412" width="120" height="60" as="geometry" />
        </mxCell>
        <mxCell id="uqAPfVNYOekRw5L2h9qv-16" value="新增模型或&lt;br&gt;方法调用" style="text;html=1;align=center;verticalAlign=middle;whiteSpace=wrap;rounded=0;fontSize=16;" parent="1" vertex="1">
          <mxGeometry x="509" y="272" width="20" height="140" as="geometry" />
        </mxCell>
        <mxCell id="c0SlC-9zr4dJQ3IhTDDm-2" value="" style="shape=singleArrow;direction=south;whiteSpace=wrap;html=1;fillColor=#dae8fc;strokeColor=#6c8ebf;" parent="1" vertex="1">
          <mxGeometry x="263" y="493" width="94" height="60" as="geometry" />
        </mxCell>
        <mxCell id="DiLPlx4hCkGKrqwY5qnB-1" value="基于工作流的城市雨洪模型集成框架" style="edgeLabel;html=1;align=center;verticalAlign=middle;resizable=0;points=[];fontSize=16;" parent="1" vertex="1" connectable="0">
          <mxGeometry x="280" y="172" as="geometry" />
        </mxCell>
        <mxCell id="DiLPlx4hCkGKrqwY5qnB-2" value="基于工作流的城市雨洪模型集成框架" style="edgeLabel;html=1;align=center;verticalAlign=middle;resizable=0;points=[];fontSize=16;" parent="1" vertex="1" connectable="0">
          <mxGeometry x="302" y="582" as="geometry" />
        </mxCell>
      </root>
    </mxGraphModel>
  </diagram>
</mxfile>
